<?xml version="1.0" standalone="no"?>
<!DOCTYPE svg PUBLIC "-//W3C//DTD SVG 20010904//EN"
 "http://www.w3.org/TR/2001/REC-SVG-20010904/DTD/svg10.dtd">
<svg version="1.0" xmlns="http://www.w3.org/2000/svg"
 width="260.000000pt" height="260.000000pt" viewBox="0 0 260.000000 260.000000"
 preserveAspectRatio="xMidYMid meet">
<metadata>
Created by potrace 1.11, written by Peter Selinger 2001-2013
</metadata>
<g transform="translate(0.000000,260.000000) scale(0.100000,-0.100000)"
fill="#000000" stroke="none">
<path d="M1645 2158 c-33 -10 -73 -24 -90 -29 -16 -6 -52 -17 -80 -24 -118
-32 -175 -51 -186 -62 -6 -6 -9 -23 -7 -39 2 -24 8 -29 33 -32 112 -9 115 -11
115 -48 0 -20 -5 -45 -11 -57 -7 -11 -18 -42 -25 -67 -19 -66 -44 -141 -59
-175 -8 -16 -19 -52 -26 -80 -6 -27 -15 -54 -20 -60 -4 -5 -10 -27 -14 -48 -4
-21 -13 -43 -19 -50 -7 -7 -17 -32 -23 -57 -7 -25 -41 -130 -78 -235 -36 -104
-72 -210 -80 -235 -42 -139 -75 -216 -102 -238 -115 -94 -317 -117 -419 -48
-20 13 -47 42 -60 63 -67 108 3 411 140 603 103 144 221 222 356 236 99 9 91
27 -25 53 -63 14 -191 16 -208 3 -6 -5 -25 -12 -42 -16 -43 -10 -101 -52 -170
-122 -146 -147 -255 -368 -274 -555 -30 -282 94 -439 347 -439 89 0 210 28
268 62 l34 20 0 -27 0 -27 178 7 c110 5 181 11 188 19 6 6 16 30 22 54 l10 42
-32 0 c-17 0 -46 9 -63 20 -36 22 -42 48 -20 90 8 14 19 48 26 75 7 27 16 54
21 60 4 5 11 24 14 41 5 24 26 45 91 92 47 34 89 62 93 62 5 0 17 9 27 20 10
11 22 20 26 20 10 0 45 -77 54 -120 4 -17 13 -43 21 -58 8 -15 14 -33 14 -40
0 -8 6 -28 14 -45 26 -58 66 -163 66 -175 0 -7 -6 -12 -14 -12 -8 0 -16 -5
-18 -12 -3 -7 -31 -14 -69 -16 -70 -4 -77 -10 -95 -84 l-6 -28 281 0 282 0 19
42 c28 62 26 68 -21 68 -23 0 -56 7 -74 16 -33 15 -85 72 -85 93 0 6 -27 77
-60 158 -33 81 -60 152 -60 156 0 11 -36 94 -60 140 -12 20 -16 37 -10 37 6 0
35 18 65 40 30 22 57 40 60 40 4 0 21 11 39 25 18 14 36 25 40 25 4 0 12 5 19
11 7 5 68 47 136 91 125 81 163 97 234 98 35 0 40 3 57 43 11 23 20 48 20 55
0 9 -58 12 -258 12 l-257 0 -13 -37 c-27 -79 -29 -73 26 -73 28 0 62 -4 76
-10 41 -15 35 -22 -109 -120 -110 -74 -141 -96 -150 -103 -5 -5 -55 -39 -110
-77 -55 -38 -108 -76 -117 -84 -10 -9 -21 -16 -24 -16 -3 0 -21 -12 -40 -26
-19 -15 -37 -25 -39 -22 -3 3 4 31 16 64 11 32 26 79 34 104 28 90 47 146 59
175 8 17 17 46 21 65 4 19 11 40 15 45 5 6 13 30 19 55 7 25 16 54 21 65 11
22 85 239 101 295 6 19 16 49 24 65 7 17 16 45 20 63 4 18 13 45 21 60 14 28
29 91 23 96 -2 1 -31 -6 -64 -16z"/>
</g>
</svg>
