<?xml version="1.0" standalone="no"?>
<!DOCTYPE svg PUBLIC "-//W3C//DTD SVG 20010904//EN"
 "http://www.w3.org/TR/2001/REC-SVG-20010904/DTD/svg10.dtd">
<svg version="1.0" xmlns="http://www.w3.org/2000/svg"
 width="280.000000pt" height="280.000000pt" viewBox="0 0 280.000000 280.000000"
 preserveAspectRatio="xMidYMid meet">
<metadata>
Created by potrace 1.11, written by Peter Selinger 2001-2013
</metadata>
<g transform="translate(0.000000,280.000000) scale(0.100000,-0.100000)"
fill="#000000" stroke="none">
<path d="M1908 2572 c-10 -2 -18 -7 -18 -11 0 -4 -13 -7 -30 -6 -16 1 -31 -4
-34 -11 -3 -7 -14 -11 -26 -9 -11 2 -20 0 -20 -4 0 -4 -6 -8 -12 -9 -46 -6
-58 -10 -74 -23 -10 -8 -15 -9 -11 -2 5 7 -4 6 -23 -3 -16 -9 -35 -12 -41 -8
-8 4 -9 3 -5 -4 4 -7 0 -12 -11 -13 -35 -1 -56 -8 -63 -19 -6 -9 -9 -9 -12 0
-3 9 -9 8 -21 -5 -10 -9 -24 -14 -32 -11 -8 3 -15 1 -15 -4 0 -5 -15 -12 -34
-15 -37 -7 -50 -30 -33 -60 6 -12 6 -16 -1 -11 -5 3 -12 0 -15 -7 -3 -9 14
-12 74 -11 59 1 79 -2 79 -12 0 -7 6 -11 13 -8 7 2 24 -7 37 -21 13 -14 20
-25 16 -25 -4 0 -2 -9 4 -19 7 -14 7 -22 -2 -27 -7 -4 -8 -3 -4 4 4 7 5 12 2
12 -9 0 -33 -57 -30 -73 1 -9 -2 -17 -7 -17 -6 0 -7 -4 -4 -10 3 -5 2 -10 -4
-10 -6 0 -8 -6 -5 -14 3 -8 1 -17 -5 -21 -6 -3 -11 -17 -11 -30 0 -13 -4 -27
-10 -30 -5 -3 -10 -17 -10 -31 0 -13 -5 -24 -11 -24 -5 0 -8 -4 -5 -8 3 -5 -2
-21 -10 -37 -12 -23 -12 -30 -2 -37 12 -7 4 -12 -14 -9 -5 0 -8 -9 -8 -22 0
-12 -7 -33 -16 -45 -10 -15 -11 -22 -3 -22 8 0 6 -6 -4 -18 -10 -10 -14 -22
-11 -25 4 -4 2 -13 -4 -20 -7 -7 -13 -22 -15 -33 -2 -10 -8 -28 -14 -39 -6
-11 -12 -23 -12 -27 -8 -46 -15 -68 -22 -68 -5 0 -8 -3 -7 -7 1 -5 -1 -25 -5
-45 -5 -26 -13 -38 -25 -39 -9 0 -12 -3 -5 -5 8 -4 8 -14 -3 -40 -8 -19 -12
-34 -10 -34 3 0 -1 -12 -9 -27 -8 -15 -12 -30 -9 -35 3 -4 0 -8 -5 -8 -6 0
-10 -3 -10 -7 1 -5 0 -11 -1 -15 -1 -5 -4 -12 -5 -18 -1 -5 -3 -11 -5 -12 -1
-2 -4 -16 -6 -33 -3 -16 -10 -33 -16 -36 -6 -4 -8 -14 -5 -22 3 -9 2 -17 -4
-19 -5 -2 -11 -14 -14 -27 -2 -12 -10 -30 -17 -39 -11 -13 -11 -14 2 -7 12 7
13 6 3 -7 -7 -8 -10 -18 -6 -21 3 -4 1 -7 -6 -7 -8 0 -11 -8 -8 -20 3 -10 1
-20 -4 -22 -5 -2 -12 -17 -15 -33 -3 -16 -10 -33 -16 -36 -6 -4 -7 -12 -4 -18
4 -6 1 -14 -8 -17 -8 -3 -12 -12 -9 -20 3 -8 1 -20 -5 -27 -5 -6 -13 -25 -17
-42 -5 -16 -9 -32 -10 -35 -1 -3 -7 -25 -14 -50 -7 -25 -18 -51 -23 -57 -6 -7
-7 -13 -3 -13 5 0 2 -8 -7 -17 -8 -10 -14 -30 -13 -45 0 -15 -2 -25 -6 -22 -4
2 -14 -8 -24 -22 -10 -15 -22 -23 -31 -20 -8 3 -14 -1 -14 -9 0 -8 -7 -15 -15
-15 -9 0 -18 -7 -21 -15 -4 -8 -10 -12 -15 -9 -5 3 -9 0 -9 -6 0 -6 -4 -8 -10
-5 -5 3 -10 1 -10 -4 0 -6 -3 -10 -7 -9 -5 1 -20 -4 -34 -10 -15 -6 -35 -12
-45 -14 -11 -2 -22 -7 -25 -11 -4 -5 -58 -9 -120 -9 -88 0 -126 4 -166 19 -29
11 -50 23 -46 26 3 4 1 7 -5 7 -7 0 -25 13 -40 30 -16 16 -31 28 -34 25 -4 -5
-6 3 -10 44 -1 11 -6 17 -10 15 -7 -5 -12 13 -11 44 1 6 -3 12 -8 12 -5 0 -9
25 -9 55 0 34 4 55 11 55 8 0 8 4 0 14 -7 8 -8 17 -3 20 5 3 7 21 6 40 -2 20
1 36 6 36 4 0 7 11 5 25 -1 14 2 28 6 31 5 3 9 14 9 24 0 10 6 21 13 23 8 4 8
6 0 6 -13 1 -6 41 8 41 4 0 6 10 4 21 -3 12 -1 18 3 14 4 -4 14 17 24 47 9 29
21 52 26 51 6 -1 8 7 5 17 -3 11 0 20 6 20 6 0 8 7 4 17 -5 12 -3 14 7 8 10
-6 12 -4 7 8 -3 10 -3 17 2 17 5 0 14 13 21 30 7 17 17 30 22 30 5 0 6 5 3 10
-3 6 -1 10 4 10 6 0 11 7 11 15 0 9 7 18 15 21 8 4 15 10 15 16 0 5 10 20 23
33 39 42 46 53 39 59 -3 4 2 4 12 0 14 -5 17 -4 12 4 -4 8 2 16 16 21 13 6 17
10 8 11 -8 0 0 8 17 16 18 9 31 19 29 23 -5 8 20 31 27 24 6 -5 37 21 37 30 0
9 -60 19 -102 19 -51 -1 -232 -70 -249 -95 -3 -5 -10 -9 -15 -10 -5 -1 -8 -5
-7 -9 2 -4 -3 -5 -10 -2 -15 5 -60 -30 -50 -40 3 -3 -1 -6 -10 -6 -16 0 -22
-12 -18 -33 1 -5 -3 -6 -9 -2 -5 3 -10 -1 -10 -10 0 -9 -4 -14 -9 -11 -5 3
-11 -4 -14 -15 -3 -12 -10 -18 -16 -14 -6 3 -9 0 -5 -8 3 -8 0 -18 -5 -22 -6
-3 -9 -11 -6 -16 4 -5 -2 -9 -12 -10 -10 0 -13 -3 -6 -6 10 -3 10 -7 0 -18 -7
-7 -15 -11 -19 -8 -4 2 -5 -3 -2 -11 3 -9 1 -16 -6 -16 -6 0 -9 -4 -5 -9 3 -5
-2 -17 -11 -25 -8 -9 -12 -16 -8 -16 5 0 3 -5 -4 -12 -7 -7 -12 -22 -12 -35 0
-13 -5 -23 -11 -23 -5 0 -7 -4 -4 -10 3 -5 1 -10 -5 -10 -6 0 -8 -4 -5 -10 3
-5 0 -10 -7 -10 -9 0 -9 -3 2 -10 13 -8 12 -10 -3 -10 -10 0 -15 -5 -12 -10 4
-6 1 -17 -5 -25 -7 -8 -10 -24 -7 -35 3 -11 1 -18 -4 -14 -8 5 -13 -12 -12
-43 1 -7 -2 -13 -6 -13 -6 0 -11 -37 -14 -97 0 -7 -3 -13 -7 -13 -4 0 -6 -14
-4 -31 3 -22 0 -28 -9 -23 -9 6 -9 5 0 -7 10 -12 10 -18 1 -27 -7 -7 -8 -12
-2 -12 5 0 10 -24 9 -52 0 -29 3 -60 7 -68 11 -23 21 -74 19 -89 -1 -7 2 -10
8 -6 6 3 11 0 11 -7 0 -19 23 -68 33 -68 4 0 7 -7 7 -15 0 -8 4 -15 9 -15 5 0
13 -9 16 -20 3 -11 13 -20 21 -20 8 0 14 -4 14 -8 0 -5 11 -15 25 -22 13 -7
23 -16 20 -19 -2 -4 6 -8 18 -8 12 -1 23 -7 25 -13 3 -7 8 -7 19 1 11 10 14
10 11 -1 -2 -8 5 -14 17 -14 11 0 22 -4 25 -8 4 -4 42 -9 85 -12 44 -2 85 -5
90 -6 6 -1 15 -1 20 0 6 2 30 4 55 5 77 4 81 5 76 14 -4 5 12 7 34 5 23 -2 39
0 36 5 -3 5 1 11 9 15 8 3 15 0 15 -6 0 -6 6 -6 16 3 9 7 23 14 32 15 8 2 19
9 23 16 5 7 9 9 9 4 0 -6 5 -5 12 2 7 7 22 12 35 12 12 0 27 8 33 18 10 14 11
14 6 0 -2 -9 2 -24 9 -35 8 -10 15 -13 15 -7 0 7 15 9 45 4 25 -4 45 -3 45 2
0 4 5 8 11 8 5 0 7 -4 4 -10 -4 -6 2 -7 17 -1 15 6 31 5 42 -1 14 -8 17 -8 11
2 -6 9 -3 9 14 1 14 -8 21 -8 21 -1 0 5 5 10 11 10 5 0 7 -6 3 -12 -5 -10 -4
-10 5 -2 7 7 29 8 56 4 25 -4 45 -3 45 2 0 4 5 8 11 8 5 0 7 -4 4 -10 -4 -7 2
-7 19 0 17 6 27 6 32 -1 4 -7 10 -7 18 0 7 6 17 7 21 3 5 -4 5 -2 1 5 -3 6 -2
14 4 18 5 3 10 17 10 31 0 14 4 22 10 19 6 -4 7 1 3 10 -3 10 0 21 8 26 12 7
12 9 -1 9 -13 0 -13 1 0 10 17 11 15 11 -67 13 -24 0 -43 4 -43 9 0 4 -7 5
-15 2 -9 -4 -15 0 -15 9 0 8 -6 17 -13 20 -16 6 -13 72 4 93 6 8 8 14 4 14 -4
0 -2 7 5 15 7 9 10 18 7 22 -4 3 0 15 8 25 7 11 11 27 8 34 -3 8 -1 14 4 14
10 0 37 84 36 112 0 10 4 15 8 12 5 -3 10 2 10 10 1 9 2 20 3 26 2 15 45 42
56 35 6 -4 9 -2 8 3 -2 5 13 22 32 38 19 16 31 22 25 13 -5 -8 -3 -7 7 3 9 10
21 18 27 18 6 0 11 5 11 10 0 6 7 10 16 10 8 0 12 5 9 10 -3 6 3 10 14 10 11
0 26 9 34 20 8 11 17 17 20 13 4 -3 7 0 7 7 0 7 3 10 7 7 3 -4 11 1 18 10 16
21 32 10 41 -29 3 -18 14 -39 23 -46 12 -10 13 -12 1 -7 -8 4 -6 -1 4 -9 12
-10 15 -16 7 -16 -9 0 -7 -11 8 -36 12 -19 15 -32 9 -28 -7 4 -4 -2 6 -14 11
-12 16 -25 13 -28 -3 -4 0 -19 8 -34 8 -15 11 -30 8 -34 -4 -3 -1 -6 5 -6 7 0
12 -9 12 -19 0 -11 5 -23 10 -26 6 -3 10 -17 10 -31 0 -13 5 -24 12 -24 6 0 9
-3 5 -6 -3 -4 0 -19 9 -35 8 -16 14 -31 14 -34 -1 -28 1 -35 9 -30 6 3 8 -4 6
-15 -2 -11 0 -20 4 -20 15 0 9 -49 -8 -63 -20 -18 -65 -31 -112 -32 -20 0 -45
-7 -55 -15 -10 -8 -15 -10 -11 -3 4 6 3 14 -1 17 -10 6 -32 -30 -36 -59 -1
-10 -8 -21 -14 -23 -6 -2 -8 -10 -5 -19 5 -12 3 -14 -8 -8 -12 8 -12 6 0 -8 7
-9 10 -17 5 -17 -5 0 -2 -4 6 -10 8 -5 17 -5 20 -1 3 5 26 5 53 1 26 -4 47 -3
47 2 0 4 5 8 11 8 5 0 7 -4 4 -10 -4 -6 2 -7 17 -1 15 6 31 5 42 -1 14 -8 17
-8 11 2 -6 9 -3 9 14 1 14 -8 21 -8 21 -1 0 5 5 10 11 10 5 0 7 -6 3 -12 -5
-10 -4 -10 5 -2 7 7 29 8 56 4 25 -4 45 -3 45 2 0 4 5 8 11 8 5 0 7 -4 4 -10
-4 -6 2 -7 17 -1 15 6 31 5 42 -1 14 -8 17 -8 11 2 -6 9 -3 9 14 1 14 -8 21
-8 21 -1 0 5 5 10 11 10 5 0 7 -6 3 -12 -5 -10 -4 -10 5 -2 7 7 29 8 56 4 25
-4 45 -3 45 2 0 4 5 8 11 8 5 0 7 -4 4 -10 -4 -7 2 -7 18 -1 14 6 28 7 31 4 8
-9 55 -10 50 -2 -2 4 3 10 12 13 9 4 14 9 10 13 -3 3 2 15 11 26 13 15 14 18
3 12 -13 -8 -13 -7 -1 9 8 9 16 32 17 49 1 18 0 27 -2 20 -4 -8 -14 -9 -34 -3
-16 4 -31 6 -33 3 -3 -2 -15 1 -27 7 -13 7 -20 8 -16 2 4 -6 -5 -6 -24 1 -16
6 -30 15 -30 20 0 4 -4 5 -10 2 -6 -3 -10 -2 -10 4 0 5 -10 13 -21 16 -17 6
-19 9 -8 16 11 7 10 9 -5 9 -12 0 -16 5 -13 14 3 8 1 16 -4 18 -5 2 -11 13
-12 25 0 12 -5 19 -9 17 -4 -3 -9 2 -9 10 -2 24 -4 29 -17 54 -7 12 -10 22 -8
22 3 0 -3 16 -14 36 -11 19 -15 32 -8 28 6 -4 2 7 -11 24 -12 18 -19 36 -16
42 3 5 1 10 -4 10 -6 0 -10 3 -10 7 1 5 0 13 -1 18 -1 6 -3 17 -4 25 0 8 -6
14 -11 13 -6 -1 -12 10 -13 25 -1 14 -6 30 -11 35 -5 5 -7 16 -4 23 3 8 0 14
-7 14 -7 0 -10 7 -6 16 3 8 2 12 -4 9 -6 -3 -10 3 -10 14 0 11 -5 23 -11 26
-6 4 -8 13 -5 21 3 7 -1 20 -9 28 -8 8 -15 21 -15 30 0 8 -4 18 -10 21 -5 3
-10 15 -10 26 0 11 -7 22 -15 25 -8 4 -15 10 -15 16 0 5 4 6 10 3 6 -3 7 1 4
9 -4 11 0 16 10 16 9 0 19 7 22 15 4 8 10 13 14 10 5 -3 13 2 18 11 5 9 12 15
15 15 21 -3 27 0 21 11 -5 8 -2 9 9 5 10 -4 16 -2 14 6 -1 7 4 11 11 10 6 -2
12 1 12 7 0 5 7 6 17 3 9 -4 14 -2 10 3 -3 6 14 21 39 34 24 14 44 31 44 40 0
13 1 13 10 0 5 -8 10 -10 10 -4 0 6 11 17 25 24 13 7 21 18 18 23 -4 6 0 8 10
4 8 -3 21 1 28 9 7 8 18 13 25 10 8 -3 11 0 8 8 -3 8 0 17 7 22 8 5 10 3 4 -7
-9 -14 34 18 47 36 5 6 8 5 8 -3 0 -7 10 -2 23 12 13 14 27 23 30 19 4 -3 7
-1 7 5 0 7 7 12 15 12 8 0 15 4 15 9 0 10 39 27 52 23 5 -1 7 4 5 11 -1 6 4
11 11 10 6 -2 12 1 12 6 0 6 9 8 20 6 13 -3 18 0 14 7 -5 7 0 9 14 6 12 -4 22
-2 22 4 0 5 4 7 9 3 5 -3 13 -1 16 5 5 8 11 8 20 0 8 -7 15 -7 19 -1 3 5 15 7
25 4 26 -7 62 14 55 32 -4 8 -2 15 4 15 15 0 21 37 8 51 -8 9 -8 10 2 5 6 -4
12 -4 13 1 0 4 2 15 4 23 2 12 -7 15 -41 15 -24 0 -44 -4 -44 -10 0 -6 -3 -6
-8 1 -9 13 -104 12 -114 -1 -5 -7 -8 -6 -8 0 0 14 -110 13 -110 0 0 -6 -3 -6
-8 1 -9 13 -104 12 -114 -1 -5 -6 -8 -6 -8 1 0 14 -50 13 -50 -1 0 -5 -4 -5
-8 2 -9 14 -44 12 -54 -2 -5 -7 -8 -7 -8 0 0 6 -19 10 -42 9 -37 -1 -44 -5
-54 -30 -7 -16 -10 -32 -7 -36 2 -5 -1 -8 -7 -8 -6 0 -8 -4 -5 -10 3 -5 1 -10
-6 -10 -7 0 -9 -3 -6 -7 4 -3 1 -13 -6 -21 -9 -13 -9 -14 1 -8 6 4 12 3 12 -2
0 -13 39 -22 46 -11 3 5 13 5 22 1 9 -5 29 -8 45 -7 15 0 27 -3 27 -8 0 -4 4
-6 9 -3 5 3 12 -1 15 -10 9 -24 7 -44 -4 -44 -11 0 -28 -13 -60 -44 -11 -11
-20 -16 -20 -12 0 4 -7 0 -16 -8 -8 -9 -20 -13 -26 -10 -6 4 -8 2 -4 -4 3 -6
-3 -13 -14 -17 -11 -3 -20 -11 -20 -16 0 -6 -4 -7 -10 -4 -5 3 -10 -1 -10 -10
0 -9 -4 -14 -9 -11 -5 3 -14 -1 -21 -10 -7 -8 -19 -13 -27 -10 -8 3 -11 2 -8
-4 3 -5 -5 -14 -17 -21 -12 -7 -29 -18 -36 -26 -8 -7 -18 -10 -24 -7 -7 5 -8
2 -4 -5 5 -8 0 -14 -13 -18 -12 -3 -21 -9 -21 -14 0 -5 -6 -9 -12 -9 -7 0 -24
-12 -37 -26 -13 -14 -30 -23 -37 -20 -6 2 -14 -5 -17 -16 -3 -11 -10 -17 -16
-13 -6 3 -11 2 -11 -2 0 -5 -9 -14 -21 -21 -17 -11 -20 -11 -13 0 4 7 -9 -4
-30 -24 -21 -21 -44 -38 -50 -38 -7 0 -21 -9 -31 -20 -10 -12 -24 -19 -31 -16
-9 3 -11 -1 -7 -11 4 -11 2 -14 -5 -9 -7 4 -12 2 -12 -4 0 -6 -4 -9 -9 -6 -5
3 -11 -1 -15 -9 -3 -8 -12 -15 -21 -15 -8 0 -15 -4 -15 -9 0 -5 -13 -16 -28
-24 -26 -12 -28 -12 -29 5 -1 10 2 16 7 13 5 -3 9 3 9 12 1 39 5 53 14 53 5 0
7 7 3 15 -3 8 0 15 6 15 6 0 8 3 5 7 -4 3 -2 12 4 20 6 7 8 13 4 13 -4 0 -2 6
4 14 6 7 12 25 13 40 1 14 6 26 10 26 4 0 8 12 8 26 0 14 4 23 8 20 4 -2 9 7
10 21 1 14 7 32 13 39 9 11 8 14 0 14 -7 0 -3 10 9 22 15 16 17 24 8 30 -10 6
-10 8 1 8 8 0 11 3 8 7 -4 3 -2 12 4 20 6 7 8 13 4 13 -4 0 -2 6 4 14 7 8 14
27 17 42 3 16 11 32 17 36 7 4 8 8 3 8 -5 0 -2 8 5 17 12 14 12 15 0 9 -9 -6
-8 0 4 17 9 14 16 28 16 31 -1 9 10 40 20 60 8 13 7 16 -1 11 -7 -4 -4 5 6 21
11 15 17 37 16 47 -2 11 0 17 5 14 5 -3 10 3 11 14 1 10 3 28 4 39 1 11 6 20
10 20 4 0 8 6 8 14 0 8 5 27 11 43 6 15 10 30 11 33 0 3 4 10 10 17 5 7 7 17
3 22 -3 6 1 21 10 34 8 13 12 27 8 30 -3 4 -1 7 6 7 7 0 9 5 6 10 -3 6 -1 10
5 10 6 0 9 4 5 10 -3 5 -1 17 4 27 5 10 17 45 26 78 10 33 22 71 28 85 6 14
11 29 11 33 1 4 8 12 16 17 9 6 10 10 3 10 -7 0 -10 7 -7 15 4 8 10 13 14 10
5 -3 7 6 4 21 -3 16 -1 23 6 19 6 -3 7 0 4 9 -3 9 -2 16 3 16 5 0 9 8 10 18 1
9 4 27 8 38 7 23 -7 33 -37 26z"/>
</g>
</svg>
